<?xml version="1.0" encoding="UTF-8" standalone="no"?>
<!-- Created with Inkscape (http://www.inkscape.org/) -->

<svg
   xmlns:dc="http://purl.org/dc/elements/1.1/"
   xmlns:cc="http://creativecommons.org/ns#"
   xmlns:rdf="http://www.w3.org/1999/02/22-rdf-syntax-ns#"
   xmlns:svg="http://www.w3.org/2000/svg"
   xmlns="http://www.w3.org/2000/svg"
   xmlns:sodipodi="http://sodipodi.sourceforge.net/DTD/sodipodi-0.dtd"
   xmlns:inkscape="http://www.inkscape.org/namespaces/inkscape"
   version="1.1"
   width="360"
   height="540"
   id="svg20298"
   sodipodi:docname="joker_black.svg"
   inkscape:version="0.92.5 (2060ec1f9f, 2020-04-08)">
  <sodipodi:namedview
     pagecolor="#ffffff"
     bordercolor="#666666"
     borderopacity="1"
     objecttolerance="10"
     gridtolerance="10"
     guidetolerance="10"
     inkscape:pageopacity="0"
     inkscape:pageshadow="2"
     inkscape:window-width="1920"
     inkscape:window-height="1017"
     id="namedview3824"
     showgrid="false"
     inkscape:zoom="1.5703704"
     inkscape:cx="22.289199"
     inkscape:cy="299.69703"
     inkscape:window-x="-8"
     inkscape:window-y="-8"
     inkscape:window-maximized="1"
     inkscape:current-layer="g3026" />
  <defs
     id="defs20300">
    <inkscape:path-effect
       effect="spiro"
       id="path-effect17935-89" />
    <inkscape:path-effect
       effect="spiro"
       id="path-effect17939-8" />
    <inkscape:path-effect
       effect="spiro"
       id="path-effect17935-8-7" />
    <inkscape:path-effect
       effect="spiro"
       id="path-effect17939-6-0" />
    <inkscape:path-effect
       effect="spiro"
       id="path-effect17935-9-8-2-5-09-4-0" />
    <inkscape:path-effect
       effect="spiro"
       id="path-effect17935-9-8-2-5-09-4-1-8" />
    <inkscape:path-effect
       effect="spiro"
       id="path-effect17935-9-8-2-5-08" />
    <inkscape:path-effect
       effect="spiro"
       id="path-effect17935-9-8-2-5-0-8" />
  </defs>
  <metadata
     id="metadata20303">
    <rdf:RDF>
      <cc:Work
         rdf:about="">
        <dc:format>image/svg+xml</dc:format>
        <dc:type
           rdf:resource="http://purl.org/dc/dcmitype/StillImage" />
        <dc:title></dc:title>
      </cc:Work>
    </rdf:RDF>
  </metadata>
  <g
     transform="translate(-151.42857,-248.08929)"
     id="layer1">
    <g
       transform="translate(151.42857,-264.27291)"
       id="g3026">
      <rect
         width="359"
         height="539"
         rx="29.944447"
         ry="29.944447"
         x="0.5"
         y="512.86218"
         id="rect6472-82"
         style="fill:#ffffff;stroke:#000000;stroke-width:0.99999976" />
      <text
         xml:space="preserve"
         style="font-style:normal;font-weight:normal;font-size:40px;line-height:1.25;font-family:sans-serif;letter-spacing:0px;word-spacing:0px;writing-mode:tb-rl;text-orientation:upright;fill:#000000;fill-opacity:1;stroke:none"
         x="29.292454"
         y="539.74426"
         id="text3828"><tspan
           sodipodi:role="line"
           id="tspan3826"
           x="597.0556"
           y="-28.018866"
           style="font-size:48px">Joker</tspan></text>
      <text
         id="text3832"
         y="-1024.5994"
         x="-331.0264"
         style="font-style:normal;font-weight:normal;font-size:40px;line-height:1.25;font-family:sans-serif;letter-spacing:0px;word-spacing:0px;writing-mode:tb-rl;text-orientation:upright;fill:#000000;fill-opacity:1;stroke:none"
         xml:space="preserve"
         transform="scale(-1)"><tspan
           style="font-size:48px"
           y="329.22171"
           x="-1684.8474"
           id="tspan3830"
           sodipodi:role="line">Joker</tspan></text>
      <path
         style="fill:#000000;stroke:#000000;stroke-width:1px;stroke-linecap:butt;stroke-linejoin:miter;stroke-opacity:1;fill-opacity:1"
         d="m 149.83274,810.0533 c -3.39623,-5.09434 -2.96775,-17.0621 -9.06298,-22.26236 -4.65212,-3.96905 -12.34603,-6.78086 -17.86882,-4.15515 -9.6023,4.56524 -14.00943,28.65566 -14.00943,28.65566 0,0 -7.50983,-26.3506 -1.91038,-37.57076 4.23248,-8.48103 14.13301,-14.94575 23.56132,-15.91981 10.0375,-1.037 28.01887,11.46227 28.01887,11.46227 0.9378,-11.9964 -2.70306,-28.50094 3.96864,-40.19519 3.35997,-5.8894 9.64271,-11.57966 16.40872,-12.0218 11.08913,-0.72464 22.20717,6.50102 29.22844,16.0357 -6.1408,1.83932 -20.95014,1.79449 -20.95014,1.79449 l 11.46227,33.11321 c 0,0 4.80551,-10.36266 9.55188,-12.73585 5.69565,-2.84782 13.08364,-2.07567 19.10378,0 5.86084,2.02074 12.34767,5.70471 14.64622,11.46227 2.14811,5.38074 -2.54717,17.19339 -2.54717,17.19339 0,0 -3.7189,-9.07492 -7.64151,-11.46226 -3.28389,-1.99861 -8.51336,-3.73984 -11.46226,-1.27359 -7.42939,6.21343 -1.94901,28.99006 -1.94901,28.99006 -4.52527,-4.8964 -10.72292,-9.88197 -17.48916,-11.79666 -11.18554,-3.16525 -24.4068,-3.6591 -34.8437,1.4601 -7.52712,3.69198 -10.4436,15.7321 -16.21558,19.22628 z"
         id="path3834"
         inkscape:connector-curvature="0"
         sodipodi:nodetypes="caacaacaacccaaacaacaac" />
      <ellipse
         id="path3845"
         cx="108.89151"
         cy="814.83862"
         rx="2.5471699"
         ry="2.865566" />
      <ellipse
         ry="2.865566"
         rx="2.5471699"
         cy="735.55798"
         cx="208.23114"
         id="ellipse3855"
         inkscape:transform-center-x="60.813679"
         inkscape:transform-center-y="24.198113" />
      <ellipse
         inkscape:transform-center-y="24.198113"
         inkscape:transform-center-x="60.813679"
         id="ellipse3857"
         cx="239.43398"
         cy="786.5014"
         rx="2.5471699"
         ry="2.865566" />
    </g>
  </g>
</svg>
